<?xml version="1.0" encoding="utf-8"?>
<!-- Generator: Adobe Illustrator 22.0.1, SVG Export Plug-In . SVG Version: 6.00 Build 0)  -->
<svg version="1.1" id="a3277a8a-60ff-4d5e-bfbb-16df02d5717d"
	 xmlns="http://www.w3.org/2000/svg" xmlns:xlink="http://www.w3.org/1999/xlink" x="0px" y="0px" viewBox="0 0 1030.6 697"
	 style="enable-background:new 0 0 1030.6 697;" xml:space="preserve">
<style type="text/css">
	.st0{fill:url(#SVGID_1_);}
	.st1{fill:url(#SVGID_2_);}
	.st2{fill:url(#big-cloud_1_);}
	.st3{fill:#FBBEBE;}
	.st4{fill:#FF6584;}
	.st5{opacity:0.1;enable-background:new    ;}
	.st6{fill:#3F3D56;}
	.st7{fill:#FF9774;}
	.st8{fill:#A0616A;}
	.st9{fill:#6C63FF;}
	.st10{fill:#00509F;}
	.st11{fill:#55536E;}
</style>
<title>i can fly</title>
<g id="small-clouds">
	
		<linearGradient id="SVGID_1_" gradientUnits="userSpaceOnUse" x1="53.6115" y1="573.4869" x2="416.6172" y2="619.8939" gradientTransform="matrix(1 0 0 -1 0 698)">
		<stop  offset="0" style="stop-color:#3FD6FF;stop-opacity:0.97"/>
		<stop  offset="0.9973" style="stop-color:#FFFFFF;stop-opacity:0.5"/>
	</linearGradient>
	<path class="st0" d="M46.3,156.7c2.3-43.6,38.3-77.8,81.9-77.8c2.5,0,5,0.1,7.4,0.3c30.3-52.1,97-69.7,149-39.5
		c16.3,9.5,29.9,23.1,39.4,39.4c2.1-0.2,4.1-0.3,6.2-0.3c43.7,0,79.7,34.2,81.9,77.8"/>
	<linearGradient id="SVGID_2_" gradientUnits="userSpaceOnUse" x1="644.2" y1="128.4201" x2="1010.0001" y2="128.4201">
		<stop  offset="0" style="stop-color:#3FD6FF;stop-opacity:0.97"/>
		<stop  offset="0.9973" style="stop-color:#FFFFFF;stop-opacity:0.5"/>
	</linearGradient>
	<path class="st1" d="M644.2,194.3c2.3-43.6,38.3-77.8,81.9-77.8c2.5,0,5,0.1,7.4,0.3c30.3-52.1,97-69.7,149-39.5
		c16.3,9.5,29.9,23.1,39.4,39.4c2.1-0.2,4.1-0.3,6.2-0.3c43.7,0,79.7,34.2,81.9,77.8"/>
</g>
<linearGradient id="big-cloud_1_" gradientUnits="userSpaceOnUse" x1="134.3" y1="394.8178" x2="911.4" y2="394.8178">
	<stop  offset="0" style="stop-color:#3FD6FF;stop-opacity:0.97"/>
	<stop  offset="0.9973" style="stop-color:#FFFFFF;stop-opacity:0.5"/>
</linearGradient>
<path id="big-cloud" class="st2" d="M134.3,534.6c4.8-92.6,81.3-165.1,174-165.1c5.3,0,10.5,0.3,15.7,0.7
	c64.2-110.5,205.9-148,316.5-83.8c34.7,20.2,63.5,49,83.7,83.6c4.4-0.3,8.8-0.5,13.2-0.5c92.7,0,169.1,72.6,174,165.1"/>
<g id="girl">
	<path class="st3" d="M259.4,223.8c0,0,14.1,34.3-7.1,42.3c0,0,30.2,13.1,37.3,10.1s12.1-10.1,12.1-12.1c0-2-7.1-3-7.1-3
		s-13.1,1-3-32.3L259.4,223.8z"/>
	<circle class="st3" cx="275.6" cy="216.7" r="25.2"/>
	<ellipse class="st4" cx="258.9" cy="211.2" rx="22.2" ry="31.2"/>
	<ellipse class="st4" cx="242.8" cy="201.1" rx="22.2" ry="31.2"/>
	<ellipse class="st4" cx="220.6" cy="178.4" rx="11.1" ry="15.6"/>
	<path class="st3" d="M300.8,260.1c0,0,6-12.1,28.2-18.1s65.5-78.6,65.5-78.6s-2-43.3,8.1-30.2s2,39.3,2,39.3l-26,45
		c-4.8,8.4-10.9,16-18,22.6c-16.1,14.9-44.9,41.3-47.7,41.3C308.8,281.2,300.8,260.1,300.8,260.1z"/>
	<path class="st3" d="M265.5,430c0,0,7,85,5,93s-8,24,2,71s-2,44-2,44l32,14c0,0-11-54-9-69s1-46,7-67c6-21,7-80,7-80L265.5,430z"/>
	<path class="st5" d="M265.5,430c0,0,7,85,5,93s-8,24,2,71s-2,44-2,44l32,14c0,0-11-54-9-69s1-46,7-67c6-21,7-80,7-80L265.5,430z"/>
	<path class="st6" d="M301.3,641.1c-2.5,1.7-8.8,3.5-20.8-9.2c0,0-7-10-13,0s-2,11,2,16c3.9,4.8,34.7,37.6,47.7,36.3
		c0.4,0,0.9-0.1,1.3-0.3c12-4-5-17-5-17s-11.1-17.1-11.2-25.2c0-0.4-0.3-0.7-0.6-0.7C301.5,641,301.4,641.1,301.3,641.1z"/>
	<path class="st3" d="M241.5,420c0,0-17,39-24,59c-3.7,10.5-14.8,13.8-24.5,14.6c-12,0.9-23.7,4.5-34.3,10.3
		c-14,7.9-33.1,16.8-45.2,15c-21-3-4,30-4,30s31-19,60-21s60-5,74-23c14-18,48-75,48-75L241.5,420z"/>
	<path class="st6" d="M110.5,544c0,0-10-7-2-14s11-13,11-13s-14-15-19-7c-5,8-27,44-22,55s10,14,16,2s21.1-21.4,21.1-21.4L110.5,544
		z"/>
	<path class="st7" d="M296.7,265.1c0,0-3.3,6.7-34.5,0.2c-8.5-1.8-17,2.2-21.1,9.9c-3.9,7.9-4.4,19.2,9.2,33.3
		c0,0,24.2,27.2,12.1,38.3c-12.1,11.1,57.5-7.1,57.5-7.1s-9.1-6-1-24.2c6.4-14.2,5.8-22.3,0.9-28.5c-2.9-3.8-4.9-8.4-5.8-13.1
		c-1.4-6.8-4.7-15.2-13.2-15.8c0,0-8.9-0.5-9.5,1.7S298.8,264.1,296.7,265.1z"/>
	<path class="st3" d="M260,286.5c-0.2-1.4-0.5-2.8-0.6-4.2c-0.6-4.8-2.9-16.6-10.9-14.6c-10.1,2.5-21.2,27.7-21.2,27.7
		s-9.1,28.2-22.2,35.3c-13.1,7.1-49.4,43.3-49.4,43.3s-30.2,8.1-19.2,16.1c11.1,8.1,25.2-5,25.2-5l35.7-21.4
		c12.5-7.5,23.2-17.5,31.4-29.5c7.5-10.8,16.7-23.2,22.6-27.3c3.5-2.4,6.2-5.8,7.7-10C260.2,293.4,260.5,289.9,260,286.5z"/>
	<path class="st7" d="M268.5,343c0,0-46-6-72,25s-45,22-43,27s98,64,154,57c34.1-4.3,52.2-8.2,61.2-10.5c3.9-1,7.3-3.3,9.6-6.5
		c1.3-1.8,3-3.3,4.9-4.4c4-2.6,5.1-8,2.5-12c0-0.1-0.1-0.2-0.2-0.2c-15.9-22.9-58.9-83.7-71.1-85.4C299.5,331,268.5,343,268.5,343z"
		/>
	<ellipse class="st4" cx="276.1" cy="189.5" rx="16.1" ry="11.6"/>
</g>
<g id="boy">
	<path class="st8" d="M737.9,93.2c1-5.3,2.4-10.5,4.2-15.6c1.8-4.9,4.1-9.2,6.6-9.2c6.2,0-21.6-26.3-21.6-26.3s-1.7,3.2-4.6,7.6
		c-2.1,3.3-4.4,6.4-6.9,9.4c-3.3,4.2-7.2,7.8-11.6,10.8C691.6,77.7,737.9,93.2,737.9,93.2z"/>
	<path class="st8" d="M819.7,195.6c0,0,61.9,39.1,42.9,45.6s-50.7-39.5-50.7-39.5L819.7,195.6z"/>
	<path class="st9" d="M736.7,106.7c0,0,29.7,21.6,38.3,38.1c8.7,16.5,53.7,53,53.7,53s-9.3,18.4-13.8,17.3s-97.3-70.1-107-75.7
		C698.2,133.8,713,99.3,736.7,106.7z"/>
	<path class="st10" d="M736.7,106.7c0,0,29.7,21.6,38.3,38.1c8.7,16.5,53.7,53,53.7,53s-9.3,18.4-13.8,17.3s-97.3-70.1-107-75.7
		C698.2,133.8,713,99.3,736.7,106.7z"/>
	<path class="st8" d="M824.4,145.7c0,0,69.5,23.2,52.5,34s-58.7-26.3-58.7-26.3L824.4,145.7z"/>
	<path class="st11" d="M779.6,462.3c0,0,29.3-12.4,26.3,6.2c-3.1,18.5-17,35.5-17,44.8S762.6,542.6,758,538
		c-4.6-4.6,7.7-23.2,4.6-34c-3.1-10.8-6.2-35.5-6.2-35.5L779.6,462.3z"/>
	<path class="st5" d="M779.6,462.3c0,0,29.3-12.4,26.3,6.2c-3.1,18.5-17,35.5-17,44.8S762.6,542.6,758,538c-4.6-4.6,7.7-23.2,4.6-34
		c-3.1-10.8-6.2-35.5-6.2-35.5L779.6,462.3z"/>
	<path class="st11" d="M770.4,476.2c0,0,29.3-12.4,26.3,6.2c-3.1,18.5-17,35.5-17,44.8s-26.3,29.3-30.9,24.7
		c-4.6-4.6,7.7-23.2,4.6-34s-6.2-35.5-6.2-35.5L770.4,476.2z"/>
	<path class="st6" d="M702.4,363.5c0,0,91.1,86.5,88,94.2s-23.2,24.7-23.2,24.7S697.8,391.3,702.4,363.5z"/>
	<path class="st5" d="M702.4,363.5c0,0,91.1,86.5,88,94.2s-23.2,24.7-23.2,24.7S697.8,391.3,702.4,363.5z"/>
	<path class="st6" d="M680.8,207.5c0,0,23.2,23.2,17,68s4.6,88,17,101.9s63.3,94.2,63.3,94.2s-21.6,35.5-38.6,17s-68-94.2-68-94.2
		s-46.3-91.1-51-115.8c-4.6-24.7-6.2-63.3,6.2-71S680.8,207.5,680.8,207.5z"/>
	<path class="st5" d="M719.1,54.7c18,3.7,16.2,4.5,27.3,8.4c0.1-0.2,0.1-0.3,0.2-0.5c1.7-4,2.8,1.3,5.2,1.3
		c6.2,0-21.6-26.3-21.6-26.3s-1.1,1.9-2.9,4.9c-0.5,0.8-1.1,1.8-1.8,2.7c-0.5,0.8-1.1,1.7-1.7,2.6L719.1,54.7z"/>
	<circle class="st8" cx="751.8" cy="46.9" r="29.3"/>
	<path class="st10" d="M697.8,68.5c0,0,44.8,4.6,54.1,24.7s-57.1,117.4-61.8,118.9c-4.6,1.5-69.5,9.3-69.5,9.3s3.1-98.9,63.3-135.9
		C683.9,85.5,697.8,79.3,697.8,68.5z"/>
	<path class="st10" d="M722.5,79.3c0,0,34,13.9,46.3,27.8s64.9,38.6,64.9,38.6s-4.6,20.1-9.3,20.1c-4.6,0-111.2-44.8-122-47.9
		S697.8,77.7,722.5,79.3z"/>
	<path class="st6" d="M749.5,50.7c0,0,7.7-7.7-7.7-13.9c0,0,15.4-6.2,18.5-15.4c3.1-9.3,13.9-24.7,23.2,0s26.3,57.1-29.3,57.1
		c0,0-13.9,3.1-13.9-9.3C740.3,62,743.7,55.1,749.5,50.7z"/>
</g>
</svg>
