<?xml version="1.0" encoding="utf-8"?>
<!-- Generator: Adobe Illustrator 22.0.1, SVG Export Plug-In . SVG Version: 6.00 Build 0)  -->
<svg version="1.1" id="Layer_1" xmlns="http://www.w3.org/2000/svg" xmlns:xlink="http://www.w3.org/1999/xlink" x="0px" y="0px"
	 viewBox="0 0 499.7 374" style="enable-background:new 0 0 499.7 374;" xml:space="preserve">
<style type="text/css">
	.st0{fill:url(#SVGID_1_);}
	.st1{fill:#004055;}
	.st2{opacity:0.7;}
	.st3{fill:#001F55;}
	.st4{opacity:0.63;}
	.st5{fill:#FFCA7F;}
</style>
<g id="Logo">
	<g>
		<g>
			
				<linearGradient id="SVGID_1_" gradientUnits="userSpaceOnUse" x1="64.7" y1="189" x2="436.7" y2="189" gradientTransform="matrix(1 0 0 -1 0 376)">
				<stop  offset="0" style="stop-color:#FFFFFF"/>
				<stop  offset="0.9822" style="stop-color:#003B94"/>
			</linearGradient>
			<circle class="st0" cx="250.7" cy="187" r="186"/>
		</g>
		<path class="st1" d="M107.9,68.3c0.1,0,0.2,0.1,0.3,0.2c1,0.8-0.2,2.5-0.1,3.8c0.2,1.7,2.4,2.1,4,2.2c1.7,0.2,3.8,1.5,3,3.1
			c-4.1,1.5-8.4,0.1-12.6-1.6c-21.7,32.2-33.2,70.6-32.9,109.9c0,4.1,0.2,8.1,0.5,12.1c0.3,0.3,0.7,0.5,1.1,0.6
			c1.2,0.5,2.7,0.4,3.8,1.1c0.9,0.5,1.5,1.5,2.4,2c2.6,1.5,6.2-1.4,8.6,0.3c0.6,0.6,1.2,1.2,1.8,1.9c2.3,2,5.9,0.6,8.5,2.1
			c1.7,1,2.5,2.9,3.5,4.6c2.3,4.4,5.9,8.7,10.7,9c1.5-0.1,3,0,4.5,0.1c1.5,0.3,2.9,1.7,2.7,3.2c-0.4,2.6,0.9,5.5,0.6,8.2
			c-0.6,4.8-7.2,7-7.7,11.9c0,1.1,0,2.1-0.2,3.2c-0.3,1.3-1.2,2.3-1.5,3.6c-0.6,2.4,1.1,4.8,2.9,6.4c1.8,1.6,4,3,5,5.2
			c1.1,2.4,0.6,5.2,0.9,7.7c0.8,5.7,5.5,9.8,10.4,12.5c1.6,0.7,2.9,1.7,4.1,3c1.3,1.9,1.2,4.3,1.6,6.6c1.1,5.5,5.5,9.9,5.7,15.5
			c0.1,4-2,7.6-3.2,11.3c-1.3,3.9-1.6,8.1-1,12.2c7.1,6.2,14.7,11.8,22.7,16.8c0.4-0.7,0.7-1.4,0.9-2.2c0.3-1.8-0.5-3.5-2-4.4
			c1.3-0.5,2.5-1.4,3.6-2.4c1-1.1,1.3-2.7,0.6-4.1c2.2,0.3,4.8,0.4,6.2-1.4c1.1-1.4,1.1-3.5,0.6-5.3s-1.3-3.5-1.3-5.3
			c5.1,0.2,10.2,0,15.2-0.6c-0.7-2.5-2.4-4.7-4.7-6c2.3-0.4,4.3-3.3,5.1-5.6c0.6-2.3,0.6-4.8,0-7.1c-0.2-0.6-0.2-1.2-0.1-1.9
			c0.4-0.8,1-1.5,1.8-1.8c3.8-2.3,7.5-4.6,11.3-6.8c0.7-0.4,1.3-0.8,1.8-1.4c1.2-1.5,1-3.6,0.4-5.4s-1.6-3.5-1.9-5.4
			c-0.7-5.6,5.1-9.7,7-15.1c0.7-2.1,1-4.3,1-6.6c0.1-2.4,0.1-5.2-1.6-6.7c-1.7-1.5-4.4-1.1-6.2-2.5c-1.6-1.3-2.2-3.7-4-4.7
			c-1.6-0.9-3.6-0.3-5.4-0.7c-3.2-0.7-5.2-4.5-8.4-4.8c-1.8-0.2-3.9,0.8-5.4-0.3c-1.3-1-1.4-2.9-1.7-4.6c-0.9-5.3-4.9-9.4-10-10.3
			c-1.9-0.3-3.9-0.2-5.5-1.2c-1.6-1.1-2.4-3.1-3.7-4.6c-2.1-2.4-5.3-3.2-8.3-4c-4.1-1-8.2-1.9-12.3-2.9c-2.2-0.5-5-0.8-6.2,1.2
			c-0.3,0.8-0.6,1.6-0.7,2.4c-0.9,3.1-3.6,5.2-6.7,5.3c-1-1.8-2.7-3.1-4.7-3.7c-1.3-0.2-2.5-0.5-3.8-0.9c-2.6-1.3-3.7-4.6-2.5-7.3
			c0-0.1,0.1-0.2,0.1-0.3c1.4-2.7,0.9-6.1-1.2-8.2c-2.1-1.9-5.1-2.4-7.9-2.2c-0.7-1.7,0.5-3.5,1.8-4.8c1.3-1.2,2.9-2.4,3.2-4.2
			c0.4-2.8-3.1-5-5.7-4.1s-4.3,3.6-5.4,6.2c-0.5,1.6-1.3,3-2.2,4.4c-1,1.4-2.6,2.1-4.2,1.8c-2.2-0.6-3-3.3-3.6-5.5
			c-0.8-3-1.2-6.2-1.2-9.3c0-3.2,1.2-6.2,3.3-8.5c3.6-3.5,9.2-3.2,14.1-2.7c-1.1-1.5-0.9-3.6,0.3-4.9c1.3-1.2,3.1-1.7,4.9-1.3
			c1.5,0.3,2.8,1.1,3.8,2.3c1.4,1.7,1.8,4.1,2.9,6.1s3.4,3.7,5.4,2.6c1.7-0.9,1.9-3.3,1.5-5.3c-0.4-1.9-1.3-3.8-1.2-5.7
			c0.3-3.7,4-6,7.3-7.6s7-3.7,7.5-7.4c0-0.7,0.1-1.4,0.4-2.1c0.4-0.6,0.9-1.1,1.5-1.5c9.6-6.7,19.3-13.4,30.3-17.1
			c0.6-0.2,0.6,0,1.2-0.1c0.8-0.5,0.3-1.8-0.5-2.4c-0.8-0.5-1.8-1-2-1.9c-0.1-0.7,0.3-1.4,0.3-2.1c0.1-1.4-1-2.7-2.4-2.8
			c-0.3,0-0.6,0-1,0.1c-0.9-1.2,0.8-2.6,2.3-3c4.2-1.2,8.6-2,13-2.3c0.5-0.1,1,0,1.5,0.2c0.7,0.7,0.7,1.8,0.1,2.5
			c-0.6,0.7-1.3,1.3-2,1.9c-1.4,1.5-2,3.7-1.4,5.7c2.3,1.2,4.8,2.4,7.4,2c2.5-0.4,4.8-3.4,3.6-5.8c-1.1-2.2-4.5-2.7-5.1-5.1
			c-0.7-2.8,3.1-5.4,2.3-8.1c-0.4-1.2-1.6-1.9-2.5-2.8c-2.2-2.2-2.8-5.5-1.7-8.4c-3,0.6-6-0.4-8.1-2.6c-2-2-3.5-5.2-6.3-5.1
			c-2.5,0.1-4.7,3.2-7.1,2.3c-0.6-0.2-1.2-0.7-1.8-0.4c-0.4,0.3-0.6,0.7-0.7,1.1c-0.6,3,0.5,6.4-1.1,9c-1.7,2.8-5.6,3.2-7.7,5.8
			c-1.1,1.4-1.5,3.2-2.6,4.7c-1,1.5-3.2,2.4-4.4,1.1c1.2-2.7,0.5-5.9-1.7-7.7c-1.2-0.8-2.4-1.4-3.7-1.8c-1.5-0.6-2.8-1.4-4.1-2.3
			c-0.6-0.4-1.2-1-1.5-1.7c-0.3-0.9-0.2-1.8,0.1-2.7c1.3-3.8,4.4-6.6,8.3-7.2c1.6-0.2,3.6-0.2,4.6-1.5c0.6-0.7,0.9-1.7,1.7-2
			c0.5-0.1,1.1-0.1,1.6,0.2c2.1,0.7,4.1,1.5,6.2,2.2c0.7,0.3,1.4,0.4,2.2,0.4c0.8-0.1,1.3-0.8,1.3-1.6c-0.2-1.1-1.8-1.5-1.6-2.6
			c0.1-0.4,0.2-0.7,0.5-0.9c4.5-5,10.8-7.7,17.4-7.3c0.8,1.3-0.4,2.9-1.5,4c-1,1.1-1.8,3.2-0.6,4c0.5,0.3,1.1,0.4,1.6,0.4
			c1.5,0.2,3,0.7,4.4,1.3c2.1,0.9,4.2,2,6.3,3.1c-0.3-1.4-0.3-2.8,0.1-4.2c0.5-1.4,1.9-2.2,3.2-1.8c1.2,0.5,1.9,2.2,3.2,2.3
			c1.7,0.2,2.4-2.5,1.7-4.1s-2.2-3-2.3-4.8c-0.1-1.2,0.3-2.7-0.6-3.5c-0.3-0.2-0.7-0.4-1.1-0.4c-7.8-1.4-15.7-2.9-23.5-4.3
			c-1.4-0.3-3.4,0-3.5,1.4c0,0.8,0.7,1.6,0.4,2.4s-1.4,0.7-2.2,1c-1.2,0.6-1.9,1.9-1.7,3.3c0.2,1.3,0.7,2.6,1.5,3.7
			c-1.5-0.6-3.8-0.7-5.4-1.4c-0.2-1.8-0.7-3.6-1.4-5.3c-0.2-1-1.1-1.7-2.1-1.6c-0.1,0-0.2,0-0.3,0.1c-2,0.3-4,0.7-6,1
			c-0.5,0-1,0.2-1.4,0.6c-0.8,0.9,0,2.2,0,3.4c-0.1,1.4-1.1,2.5-2.4,2.8c-1.3,0.3-2.6,0.3-3.8,0c-2.8-0.4-5.6-0.9-8.5-1.3
			c2.5-0.8,4.7-2.4,6.4-4.5c1.1-1.4,1.7-3.9,0.1-4.6c-0.5-0.1-1-0.2-1.5-0.1c-3.8,0.1-6.9-3.2-10.5-4.6c-1.1-0.4-2.3-0.6-3.5-0.6
			L107.9,68.3z"/>
		<path class="st1" d="M426.9,200.3c-1,1-2.5,1.5-4,1.3c-3.8-0.8-4.9-6-8.7-7c-0.3-0.1-0.7-0.2-1-0.1c-0.6,0.3-0.8,1-0.8,1.5
			c-0.5,2.9-0.9,5.9,0,8.8c1.4,4.2,5.7,7.9,4.3,12c-5.2-2.8-7.3-8.6-8-14c-0.7-5.3-0.3-10.9-2.1-16.1c-1.9,1.8-5.3-0.3-6.7-2.5
			c-1.3-2.1-1.9-4.6-3.2-6.7c-1.2-2.2-3.3-4.2-5.9-4.7c-2.8-0.4-5.4,1.1-7.7,2.4c-2,1.1-3.7,2.4-5.1,4.1c-1.7,2.5-1.8,5.8-2.2,8.8
			c-0.4,3.2-1.6,6.6-4.3,8.8c-2.8,2.2-7.3,2.5-9.7,0.1c-1.2-1.4-1.9-3-2.2-4.7c-2.1-8.1-3.6-16.3-4.7-24.6c-0.6,1.8-2.7,4-4.3,2.7
			c-0.4-0.3-0.6-0.8-0.8-1.2c-2.6-5.2-8.1-8.8-13.8-11.1c-5.7-2.4-11.8-3.9-17.5-6.5c-3.2-1.4-6.2-3.2-8.9-5.3
			c-1.7,1.8-2.2,4.4-1.2,6.7c1.1,2.3,3.7,3.6,6.5,3.3c1.4-0.2,2.5-1,3.9-1.2c1.3-0.2,3,0.1,3.5,1.4c0.4,1.2-0.6,2.3-0.2,3.5
			c0.4,1.8,3.3,2.3,4,3.9c0.4,1.4-0.1,2.7-1.3,3.6c-1.2,0.7-2.6,1.3-4,1.7c-4.4,1.6-7.8,5-11.7,7.4c-3.9,2.5-9.4,3.9-13.5,1.6
			c1.6-4.7-4.3-8.8-4.9-13.8c-0.2-1.6,0.2-3.2-0.2-4.9c-0.6-2.3-2.6-4-4.1-6c-3.9-4.6-5.6-10.5-4.7-16.2c0.3-1.9,0.9-3.9,0.6-5.9
			c-0.3-2-1.8-4-4-4.1c-5-0.3-11.3-0.7-13.4-4.8c-0.7-1.5-0.9-3.5,0.5-4.4c1-0.6,2.4-0.4,3.7-0.2c3.7,0.8,7.3,1.5,11.1,2.2
			c2.6,0.5,5.4,1,7.8,0c2.4-1,3.7-4.2,1.8-5.9c-1.4-1.2-4.1-1.5-4.4-3.3c-0.2-1.4,1.7-2.8,0.9-4.1c-0.6-1-2-0.9-3-0.3
			c-0.9,0.7-1.8,1.3-2.8,1.7c-1.8,0.7-3.9-0.4-5.8-1.1s-4.4-1.1-5.5,0.4c-1.3,1.6,0.4,4.3-0.8,6c-1.6,2.2-6.1,0.4-8.2,2.3
			c-2.4,2.1,0.8,6.1-0.2,9.1c-2,0.7-4.3,0.3-6-0.9c-1.7-1.3-2.4-3.3-2-5.2c0.3-1.3,1.2-2.7,0.9-4c-0.5-1-1.3-1.9-2.3-2.5
			c-3.4-2.2-6.8-4.4-10.2-6.6c-1.2,1.6-0.2,3.9,1.3,5.3s3.3,2.7,4.2,4.5c1.1,2.5-0.2,5.4-2.9,6.5c-0.3,0.2-0.7,0.2-1,0
			c-0.3-0.2-0.6-0.5-0.6-1c-1.4-4.7-3.8-9.3-8.1-12.2c-4.3-2.8-11-3.1-14.4,0.6c-0.8,0.9-1.4,1.8-2.2,2.8
			c-3.9,4.8-11.2,6.6-17.9,5.7c-0.6,0-1.2-0.3-1.8-0.6c-1-0.8-0.8-2.2-0.5-3.4c0.4-1.6,0.9-3.3,1.3-4.9c0.1-1,0.7-2,1.5-2.6
			c1.3-0.7,3,0,4.6,0.1c2.4,0.2,4.7-1.1,5.7-3.1c0.9-2.1,0.4-4.4-1.2-6.1c-0.7-0.7-1.5-1.5-1.1-2.3c0.3-0.4,0.9-0.7,1.5-0.7
			c2.9-0.4,5.9-0.3,8.8-0.9s5.7-2.1,6.7-4.6c0.3-0.8,0.4-1.7,1.3-2.1c0.4-0.1,0.8-0.1,1.3-0.1c3.1-0.1,5.7-2.4,5.8-5.2
			c1.4-0.7,3.2,0.1,4.4,1.1c1.2,1,2.2,2.3,3.7,2.9c2.9,1,5.8-1,8.8-0.7c1.2,0.2,2.6,0.7,3.7,0.5c1.3-0.2,2.1-1.3,3.1-2
			c1-0.7,2.7-1,3.5-0.1c-0.1-1.6-0.1-3.4-0.2-5c2.9,1,6.1,0.8,8.7-0.5c-3.1-1.3-6-2.6-9.1-3.9c-0.3-0.1-0.6-0.2-0.8-0.6
			c-0.6-0.8,0.2-1.7,0.8-2.4c1.6-1.7,2.1-4.6,0-5.8c-1.4-0.8-3.2-0.2-4.7,0.4c-2.4,1-4.8,1.8-7.2,2.8c-0.4,1.2,1.2,2,2.1,2.9
			c1.5,1.5,1.4,3.8-0.2,5.2c-0.8,0.7-2,1-3.1,0.9c0.8,1.2,1,2.6,0.5,3.9c-1.6-0.1-3.1-0.1-4.7-0.2c-0.5,0.1-1-0.1-1.4-0.4
			c-0.5-0.4-0.3-1.1-0.4-1.8c-0.2-1.4-1.5-2.7-3-3.1c-1.6-0.3-3.2-0.4-4.8-0.1c-0.6,0.2-1.4,0-2.1-0.2c-0.3-0.2-0.6-0.7-0.7-1.1
			c-0.4-1.7,0.2-3.3,1.6-4.5c1.3-1.1,2.8-2.1,4.3-2.9c3.5-2.2,6.2-5.3,7.9-8.9c2.7-0.7,5.5-1.8,8.1-2.4c2.1-0.7,4.4-1,6.6-1.3
			c2.1-0.1,4.2,0.1,6.4,0.4c2.8,0.4,5.7,0.7,8.6,1.1c2.6,0.2,5.1,0.8,7.4,1.8c2.2,1.2,4.1,3.2,4,5.6c0.1,0.5-0.3,1.1-0.7,1.4
			c-0.3,0.2-0.7,0.2-1.2,0.1c-2.4-0.2-3.5,0.3-5.9,0.1c1.4,1.6,2.9,3.4,5,3.8c3.8,0.9,7-2.5,9.1-5.5c0,1.7,1.4,3.1,3.2,3.3
			c0.9,0,1.9-0.3,2.8-0.6c8.1-3,16.8-4.1,25.6-3.2c0-1.2,1-2.4,2.4-2.5c1.8-0.1,3.3,1.4,4,3c0.7,1.6,1,3.3,2.3,4.5
			c1.3,1.2,3.9,1.5,4.6,0c0.7-1.5-0.9-2.9-2.2-4c-1.4-1-2.6-2.8-1.5-4.1c7.5-0.7,15-1.4,22.6-0.8c1.2,0.2,2.6,0.1,3.8-0.2
			c1.3-0.3,2.1-1.4,2.1-2.6c-3.4,0.4-6.8-1.3-8.5-4c7.7,0.2,15.9,0.6,23.2,3l5.9,5.7c-1.3,1-3.2,1.9-2.3,3.2c0.6,0.7,1.3,1,2.2,1
			c1.6,0.2,6.4-0.6,7.9-0.5c29.1,31.5,48.8,73.9,48,114.8c-2.6-0.4-12.6,1.1-12.6,3.8c0.1,3.1,2.2,5.9,3.6,8.6
			c0.3,0.4,0.5,0.9,0.6,1.4L426.9,200.3z"/>
		<circle class="st1" cx="430.3" cy="185.3" r="0.2"/>
		<circle class="st1" cx="431.2" cy="185.3" r="0.2"/>
		<circle class="st1" cx="431" cy="186" r="0.2"/>
		<circle class="st1" cx="431.2" cy="193.1" r="0.2"/>
		<circle class="st1" cx="433.1" cy="193.4" r="0.2"/>
		<circle class="st1" cx="432.6" cy="192.3" r="0.2"/>
		<circle class="st1" cx="433.1" cy="192.7" r="0.2"/>
		<circle class="st1" cx="432.4" cy="191.6" r="0.2"/>
		<circle class="st1" cx="433.7" cy="191.9" r="0.2"/>
		<circle class="st1" cx="432.3" cy="193.3" r="0.2"/>
	</g>
	<g class="st2">
		<circle class="st3" cx="374.7" cy="187" r="124"/>
	</g>
	<g class="st4">
		<circle class="st5" cx="126.7" cy="181" r="124"/>
	</g>
</g>
</svg>
